<?xml version="1.0" encoding="UTF-8"?>
<svg id="Layer_1" xmlns="http://www.w3.org/2000/svg" xmlns:xlink="http://www.w3.org/1999/xlink" version="1.1" viewBox="0 0 845.84 845.84">
  <!-- Generator: Adobe Illustrator 30.2.1, SVG Export Plug-In . SVG Version: 2.1.1 Build 1)  -->
  <defs>
    <style>
      .st0 {
        fill: url(#linear-gradient);
      }

      .st1 {
        fill: #03045e;
      }
    </style>
    <linearGradient id="linear-gradient" x1="3.85" y1="382.75" x2="845.84" y2="382.75" gradientTransform="translate(0 848.83) scale(1 -1)" gradientUnits="userSpaceOnUse">
      <stop offset="0" stop-color="#0077b6"/>
      <stop offset=".49" stop-color="#00b4d8"/>
      <stop offset="1" stop-color="#90e0ef"/>
    </linearGradient>
  </defs>
  <g>
    <path class="st1" d="M797.53,379.05c0,125.52-102.13,227.65-227.68,227.65h-166.02l-72.88-186.01-2.89-7.34-.47-1.2-.42-1.08-13.97-35.67.12-.02-41.13-105.91-131.62,337.23H58.56L235.77,133.98h73.01l93.31,257.23.07.19.07.19,53.99,138.3,113.63-.07c83.15,0,150.8-67.65,150.8-150.78s-67.65-150.8-150.8-150.8h-122.19c-9.66,8.94-22.57,14.39-36.73,14.39-29.89,0-54.11-24.24-54.11-54.11s24.21-54.11,54.11-54.11c15.5,0,29.47,6.52,39.33,16.96h119.58c125.55,0,227.68,102.13,227.68,227.67h.01Z"/>
    <path class="st0" d="M755.19,360.86c30.89,0,61.15.81,90.65,2.28-38.92-6.5-81.11-11.46-125.63-14.58.29,0,.58,0,.87,0-70.72-7.96-151.75-10.33-237.67-5.73C214.26,357.24-.42,434.41,3.91,515.18c1.15,21.4,17.6,40.88,46.13,57.72-16.56-13.72-25.93-28.8-26.79-44.95-3.21-59.99,150.73-126.78,319.22-159.76-111.31,26.84-221.69,76.78-221.69,122.97,0,38.92,50.68,74.26,133.18,100.49-29.91-20.31-46.64-42.75-46.64-66.38,0-90.8,245.29-164.41,547.86-164.41h.01Z"/>
  </g>
  <g>
    <path class="st1" d="M109.28,695.01l8.12,3.66-.67.86c-6.12,7.71-15.26,12.11-25.06,12.11-17.68,0-32.05-14.36-32.05-32.05s14.36-32.05,32.05-32.05c9.81,0,18.94,4.42,25.06,12.11l.69.88-1,.45c-6.95,3.15-6.93,3.15-7.31,2.94l-.24-.19c-4.42-4.8-10.68-7.55-17.2-7.55-12.92,0-23.41,10.51-23.41,23.41s10.49,23.41,23.41,23.41h.57c6.31-.15,12.35-2.89,16.63-7.55l.41-.45h0Z"/>
    <path class="st1" d="M173.43,695.01l8.12,3.66-.69.86c-6.11,7.71-15.24,12.11-25.06,12.11-17.67,0-32.03-14.36-32.03-32.05s14.36-32.05,32.03-32.05c9.82,0,18.96,4.42,25.08,12.11l.69.88-1,.45c-4.63,2.1-7.07,3.08-7.31,2.94l-.24-.19c-4.42-4.8-10.68-7.55-17.2-7.55-12.92,0-23.41,10.51-23.41,23.41s10.49,23.41,23.39,23.41h.58c6.31-.15,12.33-2.89,16.63-7.55l.41-.45h0Z"/>
    <polygon class="st1" points="196.93 656.19 196.93 675.27 227.55 675.27 227.55 683.91 196.93 683.91 196.93 703.01 236.85 703.01 236.85 711.64 188.29 711.64 188.29 647.55 236.85 647.55 236.85 656.19 196.93 656.19"/>
    <polygon class="st1" points="282.18 703.05 282.18 711.64 244.39 711.64 244.39 647.55 252.97 647.55 252.97 703.05 282.18 703.05"/>
    <polygon class="st1" points="298.16 656.19 298.16 675.27 328.78 675.27 328.78 683.91 298.16 683.91 298.16 703.01 338.08 703.01 338.08 711.64 289.52 711.64 289.52 647.55 338.08 647.55 338.08 656.19 298.16 656.19"/>
    <path class="st1" d="M375.29,686.2c8.77-2,15.24-9.98,15.24-19.08,0-10.8-8.77-19.58-19.56-19.58h-25.35v64.09h8.64v-24.96h11.15l15.65,24.96h10.2l-15.96-25.44h-.01ZM381.9,667.13c0,6.02-4.9,10.92-10.92,10.92h-16.72v-21.86h16.72c6.02,0,10.92,4.9,10.92,10.94Z"/>
    <path class="st1" d="M443.31,679.51l-12.47-31.96h-8.86l-25.01,64.09h9.25l.48-1.26c3.01-5.47,9.89-15.31,22.07-19.87,2.82-1.05,5.78-1.77,8.77-2.13.69,2,2.79,7.36,8.82,22.71l.21.55h9.27l-12.54-32.13h.01ZM425.74,682.44c-3.63,1.38-7.07,3.18-10.27,5.4.98-2.39,2.58-6.5,5.35-13.61l5.59-14.29,7.98,20.19c-2.7.4-5.61,1.17-8.65,2.31h0Z"/>
    <polygon class="st1" points="505.75 647.55 505.75 656.19 483.18 656.19 483.18 711.64 474.54 711.64 474.54 656.19 451.96 656.19 451.96 647.55 505.75 647.55"/>
    <polygon class="st1" points="521.71 656.19 521.71 675.27 552.33 675.27 552.33 683.91 521.71 683.91 521.71 703.01 561.65 703.01 561.65 711.64 513.08 711.64 513.08 647.55 561.65 647.55 561.65 656.19 521.71 656.19"/>
    <path class="st1" d="M625.23,647.55h-22.95v64.09h22.95c17.68,0,32.06-14.38,32.06-32.05s-14.38-32.05-32.06-32.05h0ZM648.63,679.59c0,12.9-10.49,23.39-23.39,23.39h-14.29v-46.79h14.29c12.9,0,23.39,10.49,23.39,23.39h0Z"/>
    <polygon class="st1" points="766.87 647.55 766.87 656.19 744.29 656.19 744.29 711.64 735.65 711.64 735.65 656.19 713.08 656.19 713.08 647.55 766.87 647.55"/>
    <path class="st1" d="M46.32,679.51l-.03-.09-.07-.19-12.37-31.69h-8.86L0,711.64h9.26l.48-1.26c3.01-5.47,9.87-15.31,22.05-19.87,2.84-1.05,5.78-1.77,8.77-2.13.69,2,2.8,7.36,8.82,22.71l.21.55h9.27l-12.54-32.13h0ZM35.78,680.43c-.34.05-.71.14-1.05.21-1.91.43-3.9,1.03-5.97,1.81-3.63,1.38-7.07,3.18-10.25,5.4.96-2.39,2.58-6.5,5.35-13.61l5.57-14.29,8,20.19c-.55.09-1.1.17-1.65.29h0Z"/>
    <path class="st1" d="M807.62,679.51h.02l-12.49-31.96h-8.84l-25.01,64.09h9.25l.48-1.26c3.01-5.47,9.87-15.31,22.07-19.87,2.82-1.05,5.76-1.77,8.77-2.13.67,2,2.79,7.36,8.81,22.71l.22.55h9.25l-12.54-32.13h.01ZM790.08,682.44c-3.65,1.38-7.09,3.18-10.27,5.4.98-2.39,2.58-6.5,5.35-13.61l5.59-14.29,7.98,20.19c-2.7.4-5.61,1.17-8.65,2.31h0Z"/>
    <path class="st1" d="M704.42,679.51l-12.47-31.96h-8.86l-25.01,64.09h9.25l.48-1.26c3.01-5.47,9.89-15.31,22.07-19.87,2.82-1.05,5.78-1.77,8.77-2.13.69,2,2.79,7.36,8.82,22.71l.21.55h9.27l-12.54-32.13h0ZM686.86,682.44c-3.63,1.38-7.07,3.18-10.27,5.4.98-2.39,2.58-6.5,5.35-13.61l5.59-14.29,7.98,20.19c-2.7.4-5.61,1.17-8.65,2.31h0Z"/>
  </g>
</svg>